<?xml version="1.0" encoding="UTF-8" standalone="no"?>
<svg
   xmlns:dc="http://purl.org/dc/elements/1.1/"
   xmlns:cc="http://creativecommons.org/ns#"
   xmlns:rdf="http://www.w3.org/1999/02/22-rdf-syntax-ns#"
   xmlns:svg="http://www.w3.org/2000/svg"
   xmlns="http://www.w3.org/2000/svg"
   xmlns:sodipodi="http://sodipodi.sourceforge.net/DTD/sodipodi-0.dtd"
   xmlns:inkscape="http://www.inkscape.org/namespaces/inkscape"
   version="1.1"
   width="24"
   height="24"
   viewBox="0 0 24 24"
   id="svg2"
   inkscape:version="0.91 r13725"
   sodipodi:docname="cat.svg">
  <metadata
     id="metadata10">
    <rdf:RDF>
      <cc:Work
         rdf:about="">
        <dc:format>image/svg+xml</dc:format>
        <dc:type
           rdf:resource="http://purl.org/dc/dcmitype/StillImage" />
      </cc:Work>
    </rdf:RDF>
  </metadata>
  <defs
     id="defs8" />
  <sodipodi:namedview
     pagecolor="#ffffff"
     bordercolor="#666666"
     borderopacity="1"
     objecttolerance="10"
     gridtolerance="10"
     guidetolerance="10"
     inkscape:pageopacity="0"
     inkscape:pageshadow="2"
     inkscape:window-width="686"
     inkscape:window-height="480"
     id="namedview6"
     showgrid="false"
     inkscape:zoom="9.8333333"
     inkscape:cx="12"
     inkscape:cy="12"
     inkscape:window-x="0"
     inkscape:window-y="0"
     inkscape:window-maximized="0"
     inkscape:current-layer="svg2" />
  <path
     d="M12,8L10.67,8.09C9.81,7.07 7.4,4.5 5,4.5C5,4.5 3.03,7.46 4.96,11.41C4.41,12.24 4.07,12.67 4,13.66L2.07,13.95L2.28,14.93L4.04,14.67L4.18,15.38L2.61,16.32L3.08,17.21L4.53,16.32C5.68,18.76 8.59,20 12,20C15.41,20 18.32,18.76 19.47,16.32L20.92,17.21L21.39,16.32L19.82,15.38L19.96,14.67L21.72,14.93L21.93,13.95L20,13.66C19.93,12.67 19.59,12.24 19.04,11.41C20.97,7.46 19,4.5 19,4.5C16.6,4.5 14.19,7.07 13.33,8.09L12,8M9,11A1,1 0 0,1 10,12A1,1 0 0,1 9,13A1,1 0 0,1 8,12A1,1 0 0,1 9,11M15,11A1,1 0 0,1 16,12A1,1 0 0,1 15,13A1,1 0 0,1 14,12A1,1 0 0,1 15,11M11,14H13L12.3,15.39C12.5,16.03 13.06,16.5 13.75,16.5A1.5,1.5 0 0,0 15.25,15H15.75A2,2 0 0,1 13.75,17C13,17 12.35,16.59 12,16V16H12C11.65,16.59 11,17 10.25,17A2,2 0 0,1 8.25,15H8.75A1.5,1.5 0 0,0 10.25,16.5C10.94,16.5 11.5,16.03 11.7,15.39L11,14Z"
     id="path4"
     style="fill:#009688;fill-opacity:1" />
</svg>
