<?xml version="1.0" encoding="UTF-8" standalone="no"?>
<svg
   xmlns:dc="http://purl.org/dc/elements/1.1/"
   xmlns:cc="http://creativecommons.org/ns#"
   xmlns:rdf="http://www.w3.org/1999/02/22-rdf-syntax-ns#"
   xmlns:svg="http://www.w3.org/2000/svg"
   xmlns="http://www.w3.org/2000/svg"
   xmlns:sodipodi="http://sodipodi.sourceforge.net/DTD/sodipodi-0.dtd"
   xmlns:inkscape="http://www.inkscape.org/namespaces/inkscape"
   version="1.1"
   width="24"
   height="24"
   viewBox="0 0 24 24"
   id="svg2"
   inkscape:version="0.91 r13725"
   sodipodi:docname="fish.svg">
  <metadata
     id="metadata10">
    <rdf:RDF>
      <cc:Work
         rdf:about="">
        <dc:format>image/svg+xml</dc:format>
        <dc:type
           rdf:resource="http://purl.org/dc/dcmitype/StillImage" />
      </cc:Work>
    </rdf:RDF>
  </metadata>
  <defs
     id="defs8" />
  <sodipodi:namedview
     pagecolor="#ffffff"
     bordercolor="#666666"
     borderopacity="1"
     objecttolerance="10"
     gridtolerance="10"
     guidetolerance="10"
     inkscape:pageopacity="0"
     inkscape:pageshadow="2"
     inkscape:window-width="686"
     inkscape:window-height="480"
     id="namedview6"
     showgrid="false"
     inkscape:zoom="9.8333333"
     inkscape:cx="12"
     inkscape:cy="12"
     inkscape:window-x="0"
     inkscape:window-y="0"
     inkscape:window-maximized="0"
     inkscape:current-layer="svg2" />
  <path
     d="M12,20L12.76,17C9.5,16.79 6.59,15.4 5.75,13.58C5.66,14.06 5.53,14.5 5.33,14.83C4.67,16 3.33,16 2,16C3.1,16 3.5,14.43 3.5,12.5C3.5,10.57 3.1,9 2,9C3.33,9 4.67,9 5.33,10.17C5.53,10.5 5.66,10.94 5.75,11.42C6.4,10 8.32,8.85 10.66,8.32L9,5C11,5 13,5 14.33,5.67C15.46,6.23 16.11,7.27 16.69,8.38C19.61,9.08 22,10.66 22,12.5C22,14.38 19.5,16 16.5,16.66C15.67,17.76 14.86,18.78 14.17,19.33C13.33,20 12.67,20 12,20M17,11A1,1 0 0,0 16,12A1,1 0 0,0 17,13A1,1 0 0,0 18,12A1,1 0 0,0 17,11Z"
     id="path4"
     style="fill:#2196f3;fill-opacity:1" />
</svg>
