<?xml version="1.0" encoding="UTF-8" standalone="no"?>
<svg
   xmlns:dc="http://purl.org/dc/elements/1.1/"
   xmlns:cc="http://creativecommons.org/ns#"
   xmlns:rdf="http://www.w3.org/1999/02/22-rdf-syntax-ns#"
   xmlns:svg="http://www.w3.org/2000/svg"
   xmlns="http://www.w3.org/2000/svg"
   xmlns:sodipodi="http://sodipodi.sourceforge.net/DTD/sodipodi-0.dtd"
   xmlns:inkscape="http://www.inkscape.org/namespaces/inkscape"
   version="1.1"
   width="24"
   height="24"
   viewBox="0 0 24 24"
   id="svg2"
   inkscape:version="0.91 r13725"
   sodipodi:docname="owl.svg">
  <metadata
     id="metadata10">
    <rdf:RDF>
      <cc:Work
         rdf:about="">
        <dc:format>image/svg+xml</dc:format>
        <dc:type
           rdf:resource="http://purl.org/dc/dcmitype/StillImage" />
      </cc:Work>
    </rdf:RDF>
  </metadata>
  <defs
     id="defs8" />
  <sodipodi:namedview
     pagecolor="#ffffff"
     bordercolor="#666666"
     borderopacity="1"
     objecttolerance="10"
     gridtolerance="10"
     guidetolerance="10"
     inkscape:pageopacity="0"
     inkscape:pageshadow="2"
     inkscape:window-width="686"
     inkscape:window-height="480"
     id="namedview6"
     showgrid="false"
     inkscape:zoom="9.8333333"
     inkscape:cx="12"
     inkscape:cy="12"
     inkscape:window-x="0"
     inkscape:window-y="0"
     inkscape:window-maximized="0"
     inkscape:current-layer="svg2" />
  <path
     d="M12,16C12.56,16.84 13.31,17.53 14.2,18L12,20.2L9.8,18C10.69,17.53 11.45,16.84 12,16M17,11.2A2,2 0 0,0 15,13.2A2,2 0 0,0 17,15.2A2,2 0 0,0 19,13.2C19,12.09 18.1,11.2 17,11.2M7,11.2A2,2 0 0,0 5,13.2A2,2 0 0,0 7,15.2A2,2 0 0,0 9,13.2C9,12.09 8.1,11.2 7,11.2M17,8.7A4,4 0 0,1 21,12.7A4,4 0 0,1 17,16.7A4,4 0 0,1 13,12.7A4,4 0 0,1 17,8.7M7,8.7A4,4 0 0,1 11,12.7A4,4 0 0,1 7,16.7A4,4 0 0,1 3,12.7A4,4 0 0,1 7,8.7M2.24,1C4,4.7 2.73,7.46 1.55,10.2C1.19,11 1,11.83 1,12.7A6,6 0 0,0 7,18.7C7.21,18.69 7.42,18.68 7.63,18.65L10.59,21.61L12,23L13.41,21.61L16.37,18.65C16.58,18.68 16.79,18.69 17,18.7A6,6 0 0,0 23,12.7C23,11.83 22.81,11 22.45,10.2C21.27,7.46 20,4.7 21.76,1C19.12,3.06 15.36,4.69 12,4.7C8.64,4.69 4.88,3.06 2.24,1Z"
     id="path4"
     style="fill:#9c27b0;fill-opacity:1" />
</svg>
