<?xml version="1.0" encoding="UTF-8" standalone="no"?>
<svg
   xmlns:dc="http://purl.org/dc/elements/1.1/"
   xmlns:cc="http://creativecommons.org/ns#"
   xmlns:rdf="http://www.w3.org/1999/02/22-rdf-syntax-ns#"
   xmlns:svg="http://www.w3.org/2000/svg"
   xmlns="http://www.w3.org/2000/svg"
   xmlns:sodipodi="http://sodipodi.sourceforge.net/DTD/sodipodi-0.dtd"
   xmlns:inkscape="http://www.inkscape.org/namespaces/inkscape"
   version="1.1"
   width="24"
   height="24"
   viewBox="0 0 24 24"
   id="svg2"
   inkscape:version="0.91 r13725"
   sodipodi:docname="rabbit.svg">
  <metadata
     id="metadata10">
    <rdf:RDF>
      <cc:Work
         rdf:about="">
        <dc:format>image/svg+xml</dc:format>
        <dc:type
           rdf:resource="http://purl.org/dc/dcmitype/StillImage" />
      </cc:Work>
    </rdf:RDF>
  </metadata>
  <defs
     id="defs8" />
  <sodipodi:namedview
     pagecolor="#ffffff"
     bordercolor="#666666"
     borderopacity="1"
     objecttolerance="10"
     gridtolerance="10"
     guidetolerance="10"
     inkscape:pageopacity="0"
     inkscape:pageshadow="2"
     inkscape:window-width="686"
     inkscape:window-height="480"
     id="namedview6"
     showgrid="false"
     inkscape:zoom="9.8333333"
     inkscape:cx="12"
     inkscape:cy="12"
     inkscape:window-x="0"
     inkscape:window-y="0"
     inkscape:window-maximized="0"
     inkscape:current-layer="svg2" />
  <path
     d="M18.05,21L15.32,16.26C15.32,14.53 14.25,13.42 12.95,13.42C12.05,13.42 11.27,13.92 10.87,14.66C11.2,14.47 11.59,14.37 12,14.37C13.3,14.37 14.36,15.43 14.36,16.73C14.36,18.04 13.31,19.11 12,19.11H15.3V21H6.79C6.55,21 6.3,20.91 6.12,20.72C5.75,20.35 5.75,19.75 6.12,19.38V19.38L6.62,18.88C6.28,18.73 6,18.5 5.72,18.26C5.5,18.76 5,19.11 4.42,19.11C3.64,19.11 3,18.47 3,17.68C3,16.9 3.64,16.26 4.42,16.26L4.89,16.34V14.37C4.89,11.75 7,9.63 9.63,9.63H9.65C11.77,9.64 13.42,10.47 13.42,9.16C13.42,8.23 13.62,7.86 13.96,7.34C13.23,7 12.4,6.79 11.53,6.79C11,6.79 10.58,6.37 10.58,5.84C10.58,5.41 10.86,5.05 11.25,4.93L10.58,4.89C10.06,4.89 9.63,4.47 9.63,3.95C9.63,3.42 10.06,3 10.58,3H11.53C13.63,3 15.47,4.15 16.46,5.85L16.74,5.84C17.45,5.84 18.11,6.07 18.65,6.45L19.1,6.83C21.27,8.78 21,10.1 21,10.11C21,11.39 19.94,12.44 18.65,12.44L18.16,12.39V12.47C18.16,13.58 17.68,14.57 16.93,15.27L20.24,21H18.05M18.16,7.74C17.63,7.74 17.21,8.16 17.21,8.68C17.21,9.21 17.63,9.63 18.16,9.63C18.68,9.63 19.11,9.21 19.11,8.68C19.11,8.16 18.68,7.74 18.16,7.74Z"
     id="path4"
     style="fill:#4caf50;fill-opacity:1" />
</svg>
